<?xml version="1.0" encoding="iso-8859-1"?>
<!-- Generator: Adobe Illustrator 19.0.0, SVG Export Plug-In . SVG Version: 6.00 Build 0)  -->
<svg version="1.1" id="Layer_1" xmlns="http://www.w3.org/2000/svg" xmlns:xlink="http://www.w3.org/1999/xlink" x="0px" y="0px"
	 viewBox="0 0 512 512" style="enable-background:new 0 0 512 512;" xml:space="preserve">
<g>
	<g>
		<path d="M0,0v512h512V0H0z M465.455,465.455H46.545V46.545h418.909V465.455z"/>
	</g>
</g>
<g>
	<g>
		<path d="M256,93.091c-89.828,0-162.909,73.081-162.909,162.909S166.172,418.909,256,418.909S418.909,345.828,418.909,256
			S345.828,93.091,256,93.091z M256,372.364c-64.163,0-116.364-52.201-116.364-116.364S191.837,139.636,256,139.636
			S372.364,191.837,372.364,256S320.163,372.364,256,372.364z"/>
	</g>
</g>
<g>
	<g>
		<path d="M201.697,224.97c-17.11,0-31.03,13.92-31.03,31.03s13.92,31.03,31.03,31.03s31.03-13.92,31.03-31.03
			S218.807,224.97,201.697,224.97z M201.697,271.515c-8.555,0-15.515-6.96-15.515-15.515c0-8.555,6.96-15.515,15.515-15.515
			s15.515,6.96,15.515,15.515C217.212,264.555,210.252,271.515,201.697,271.515z"/>
	</g>
</g>
<g>
	<g>
		<path d="M310.303,224.97c-17.11,0-31.03,13.92-31.03,31.03s13.92,31.03,31.03,31.03s31.03-13.92,31.03-31.03
			S327.413,224.97,310.303,224.97z M310.303,271.515c-8.555,0-15.515-6.96-15.515-15.515c0-8.555,6.96-15.515,15.515-15.515
			s15.515,6.96,15.515,15.515C325.818,264.555,318.858,271.515,310.303,271.515z"/>
	</g>
</g>
<g>
</g>
<g>
</g>
<g>
</g>
<g>
</g>
<g>
</g>
<g>
</g>
<g>
</g>
<g>
</g>
<g>
</g>
<g>
</g>
<g>
</g>
<g>
</g>
<g>
</g>
<g>
</g>
<g>
</g>
</svg>
